# xmcd
#
# Track frame offsets: 
#        150
#        16602
#        30984
#        56641
#        101856
#        124405
#        149191
#        168544
#        188607
#        213596
#        249936
#        266292
#        293741
#        315154
#        338922
#
# Disc length: 4795 seconds
#
# Revision: 2
# Processed by: cddbd v1.5.2PL0 Copyright (c) Steve Scherf et al.
# Submitted via: ExactAudioCopy v1.3
#
DISCID=d512b90f
DTITLE=Various Artist - Akella Presents - vol. 03 - Various Styles Of
DTITLE=Blues  CD2
DYEAR=2013
DGENRE=Blues
TTITLE0=CHRIS REA - Love's Strange Ways
TTITLE1=George THOROGOOD - Willie Dixon's Gone
TTITLE2=SCOTT HOLT - Let's Straighten It Out
TTITLE3=BIG GEORGE and The BUSINESS - Rose's Home
TTITLE4=OMAR and The HOWLERS - Sugar Ditch
TTITLE5=BLUES TRACKERS - Smells Like Trouble
TTITLE6=SCOTT KEETON - Eye On You
TTITLE7=SAVOY BROWN - You're In For A Big Surprise
TTITLE8=GREGG ROLIE - Ordinary Man
TTITLE9=ALVIN LEE - Outside My Window
TTITLE10=RICK VITO - Last Chance to Mambo
TTITLE11=CHUCK DAY BAND - Parchman Farm
TTITLE12=ZZ TOP - Blue Jean Blues
TTITLE13=MELVIN TAYLOR - I'll Play The Blues For You
TTITLE14=LITTLE MIKE and TORNADOES - Car of the Blues
EXTD=
EXTT0=
EXTT1=
EXTT2=
EXTT3=
EXTT4=
EXTT5=
EXTT6=
EXTT7=
EXTT8=
EXTT9=
EXTT10=
EXTT11=
EXTT12=
EXTT13=
EXTT14=
PLAYORDER=
